<svg xmlns="http://www.w3.org/2000/svg" xmlns:xlink="http://www.w3.org/1999/xlink" preserveAspectRatio="xMidYMid" width="161.19" height="114.47" viewBox="0 0 161.19 114.47">
  <defs>
    <style>
      .cls-1 {
        fill: #5451c1;
        opacity: 0.05;
        fill-rule: evenodd;
      }
    </style>
  </defs>
  <path d="M161.092,77.801 C159.678,89.544 138.002,99.110 113.739,101.155 C111.961,103.113 110.113,104.928 108.203,106.550 C88.622,123.187 66.234,108.739 29.849,106.795 C14.555,105.978 5.142,106.725 1.474,98.662 C-3.097,88.617 3.458,69.742 15.329,52.564 C11.894,45.640 10.543,38.660 12.016,32.134 C16.446,12.515 45.931,-1.734 71.046,0.188 C80.685,0.926 88.431,4.842 95.957,10.800 C113.200,12.395 127.680,20.324 132.819,34.813 C134.292,38.964 134.970,43.603 134.984,48.497 C136.693,50.017 138.457,51.544 140.291,53.075 C153.358,63.984 162.049,69.852 161.092,77.801 Z" class="cls-1"/>
</svg>
